Coordinates
version=1
nRows=9
nColumns=24
inDegrees=yes

Units are S.I. units (second, meters, Newtons, ...)
Angles are in degrees.

endheader
time	pelvis_tilt	pelvis_list	pelvis_rotation	pelvis_tx	pelvis_ty	pelvis_tz	hip_flexion_r	hip_adduction_r	hip_rotation_r	knee_angle_r	ankle_angle_r	subtalar_angle_r	mtp_angle_r	hip_flexion_l	hip_adduction_l	hip_rotation_l	knee_angle_l	ankle_angle_l	subtalar_angle_l	mtp_angle_l	lumbar_extension	lumbar_bending	lumbar_rotation
      0.54600000	     -0.60021621	      2.80112924	      4.36335450	     -0.76502494	      0.99161098	      0.27342640	     22.35599534	     -2.80477770	     -5.33444206	      2.31951752	      3.10356252	    -11.28760530	      7.80757013	    -18.61896371	      4.43656128	      7.59803344	     -2.71977049	     11.33559163	    -12.47395423	      3.07801655	     -2.48449276	     -4.37883900	     -5.68157517
      0.55016667	     -0.59413212	      2.71879511	      4.44579120	     -0.75891592	      0.99099014	      0.27363686	     22.40504531	     -2.72125251	     -5.10623773	      1.92348969	      3.13918407	    -11.55667364	      7.80911576	    -18.72313330	      4.29372473	      7.66278668	     -3.25656661	     11.46797221	    -12.38837894	      3.10618987	     -2.46708688	     -4.24398522	     -5.79919612
      0.55433333	     -0.59349105	      2.63151968	      4.53176125	     -0.75276263	      0.99040663	      0.27386304	     22.44728226	     -2.62859494	     -4.84097127	      1.49114507	      3.05752347	    -11.97852017	      7.81937983	    -18.77160401	      4.14456353	      7.63347227	     -3.89926615	     11.62587731	    -12.14908294	      3.15862017	     -2.42650998	     -4.10515240	     -5.95534834
      0.55850000	     -0.57264355	      2.52465064	      4.60008421	     -0.74653530	      0.98989492	      0.27412291	     22.46848500	     -2.50309898	     -4.58616669	      1.00550630	      2.90220809	    -12.40237351	      7.84485480	    -18.83689292	      3.97515764	      7.53075078	     -4.54091793	     11.72650394	    -11.85716806	      3.24223116	     -2.39862430	     -3.94483008	     -6.06295965
      0.56266667	     -0.56554287	      2.41607827	      4.67340598	     -0.74026895	      0.98940879	      0.27438312	     22.50243864	     -2.37527089	     -4.32252743	      0.46696330	      2.74196490	    -12.81852053	      7.88133254	    -18.86608306	      3.80801469	      7.47840389	     -5.22980985	     11.81950040	    -11.62715365	      3.34119519	     -2.35257216	     -3.78141341	     -6.16163897
      0.56683333	     -0.54868270	      2.29129033	      4.74117007	     -0.73394463	      0.98897358	      0.27466713	     22.51827970	     -2.22246410	     -4.05375691	     -0.09890083	      2.52073890	    -13.26695014	      7.93042146	    -18.88213506	      3.62419904	      7.38707593	     -5.96918494	     11.89621923	    -11.37008333	      3.46395913	     -2.31032932	     -3.60006722	     -6.25229887
      0.57100000	     -0.52724902	      2.15775868	      4.80157178	     -0.72756590	      0.98858386	      0.27496894	     22.52533267	     -2.05299392	     -3.78470963	     -0.69535529	      2.25105521	    -13.72737018	      7.99254467	    -18.89269033	      3.43273342	      7.27747791	     -6.72594571	     11.94296324	    -11.10634109	      3.61387407	     -2.26532256	     -3.40532603	     -6.33516384
      0.57516667	     -0.51641894	      2.01974830	      4.85992507	     -0.72113779	      0.98822722	      0.27528294	     22.54270376	     -1.87442360	     -3.52549861	     -1.32420461	      1.95950848	    -14.17598855	      8.05568697	    -18.85950101	      3.24216956	      7.17054021	     -7.54646260	     11.97442506	    -10.88031238	      3.77137432	     -2.18912259	     -3.19650293	     -6.40420441
      0.57933333	     -0.49417110	      1.86503686	      4.90816889	     -0.71465714	      0.98792227	      0.27562856	     22.54136380	     -1.66981585	     -3.26782191	     -1.96376939	      1.59255339	    -14.62792495	      8.12544089	    -18.82578211	      3.03292721	      7.01650994	     -8.39191053	     11.94799307	    -10.61393717	      3.95257352	     -2.13997405	     -2.97904788	     -6.46700536
